<svg width="169" height="156" viewBox="0 0 169 156" fill="none" xmlns="http://www.w3.org/2000/svg">
<g id="Group 51">
<path id="Rectangle 158" d="M48.8052 73.9999C48.8052 83.941 56.864 91.9999 66.8052 91.9999L93.8052 91.9999C96.5666 91.9999 98.8052 89.7613 98.8052 86.9999L98.8052 52.9999C98.8052 47.477 94.328 42.9999 88.8052 42.9999L53.8052 42.9999C51.0437 42.9999 48.8052 45.2385 48.8052 47.9999L48.8052 73.9999Z" fill="#FFF1DA"/>
<g id="plane">
<g id="Group">
<path id="Vector" d="M97.3959 87.941C96.0373 88.2472 94.7136 88.8124 93.507 89.6011C90.3636 91.6057 88.5324 94.4628 89.417 95.982C90.3016 97.5011 93.5669 97.1068 96.7103 95.1021C97.9331 94.3412 99.0197 93.3696 99.9035 92.2472C100.314 91.7049 100.388 91.03 100.094 90.5261L98.9444 88.5525C98.652 88.047 98.0443 87.8073 97.3959 87.941Z" fill="#D5D6DB"/>
<path id="Vector_2" d="M89.5072 60.948C88.522 61.1702 87.5621 61.5802 86.6871 62.1522C84.4084 63.6054 83.0797 65.677 83.7207 66.7777C84.3616 67.8783 86.7302 67.5921 89.0087 66.1391C89.8953 65.587 90.6832 64.8821 91.3241 64.0682C91.6211 63.6752 91.675 63.1862 91.4615 62.8208L90.6294 61.3918C90.4177 61.0254 89.9774 60.8512 89.5072 60.948Z" fill="#D5D6DB"/>
<path id="Vector_3" d="M76.6936 62.0968C76.4744 62.0727 76.2405 62.1315 76.0376 62.2612L70.6848 65.6753C70.2371 65.96 70.0573 66.5072 70.2836 66.8976C70.3354 66.9871 70.4063 67.0634 70.4924 67.1222L83.6601 76.1767L101.509 64.7925L76.6936 62.0968Z" fill="#029BC5"/>
<path id="Vector_4" d="M133.063 60.7622L84.5191 91.3322L55.8092 102.781L41.1719 105.709L39.5662 102.979L120.48 53.0011C122.891 51.5053 125.577 50.5853 128.264 50.3345C129.441 50.2309 130.603 50.2682 131.723 50.4449C132.716 50.5938 133.658 50.8825 134.52 51.3024C135.483 51.7782 137.316 51.8304 137.908 52.7805C137.91 52.779 139.305 57.1429 133.063 60.7622V60.7622Z" fill="#E1E6E9"/>
<path id="Vector_5" d="M85.19 87.322L64.1547 120.776C63.8919 121.246 64.0467 121.772 64.5001 121.95C64.7784 122.059 65.1192 122.016 65.4058 121.833L70.7524 118.44C71.7807 117.786 72.6916 116.958 73.4289 116.004L114.198 68.1403L85.19 87.322Z" fill="#029BC5"/>
<path id="Vector_6" d="M32.2031 86.2003C31.853 86.0813 31.4361 86.144 31.0839 86.3686L26.6616 89.1877C26.059 89.5715 25.8181 90.3079 26.1232 90.8327C26.1814 90.9325 26.257 91.0203 26.3476 91.0925L38.7121 100.978L51.739 92.8323L32.2031 86.2003Z" fill="#029BC5"/>
<path id="Vector_7" d="M42.8783 102.775L36.2063 112.101C36.1085 112.235 36.1312 112.403 36.257 112.476C36.3477 112.529 36.4716 112.519 36.5725 112.451L40.7025 109.833C40.7346 109.813 40.7637 109.787 40.7877 109.758L50.534 97.9261L42.8783 102.775Z" fill="#029BC5"/>
<path id="Vector_8" d="M130.913 50.8552C129.759 50.6719 128.562 50.6343 127.349 50.7428C126.166 52.394 125.409 54.2479 125.153 56.1196C125.134 56.4956 125.437 56.7656 125.83 56.7228C125.952 56.7094 126.073 56.6663 126.183 56.5975L133.796 51.746C132.907 51.3094 131.937 51.0095 130.913 50.8552Z" fill="#029BC5"/>
<path id="Vector_9" d="M114.332 59.7738L119.307 56.6283L123.926 64.4888L118.951 67.6343L114.332 59.7738Z" fill="#D5D6DB"/>
<g id="Group_2">
<path id="Vector_10" d="M111.208 62.8793C110.609 63.2594 110.369 63.9884 110.672 64.5075L111.163 65.3483C111.486 65.8541 112.226 65.9418 112.815 65.5442C113.376 65.1655 113.602 64.4786 113.333 63.9722L112.842 63.1313C112.539 62.6127 111.808 62.4998 111.208 62.8793V62.8793Z" fill="#3A556A"/>
<path id="Vector_11" d="M106.744 65.6517C106.145 66.0318 105.904 66.7609 106.207 67.2799L106.699 68.1208C107.022 68.6266 107.762 68.7143 108.351 68.3167C108.911 67.938 109.138 67.2511 108.869 66.7447L108.378 65.9038C108.074 65.3853 107.343 65.2724 106.744 65.6517V65.6517Z" fill="#3A556A"/>
<path id="Vector_12" d="M102.278 68.4251C101.679 68.8057 101.44 69.5338 101.743 70.0524L102.234 70.8933C102.557 71.399 103.297 71.4868 103.886 71.0891C104.447 70.7104 104.673 70.0236 104.404 69.5172L103.913 68.6763C103.61 68.1573 102.878 68.0448 102.278 68.4251V68.4251Z" fill="#3A556A"/>
<path id="Vector_13" d="M97.8139 71.1975C97.2151 71.5781 96.9755 72.3062 97.2785 72.8248L97.7699 73.6657C98.0931 74.1715 98.8327 74.2592 99.4218 73.8616C99.9825 73.4829 100.209 72.796 99.9399 72.2896L99.4486 71.4487C99.1451 70.9298 98.4133 70.8173 97.8139 71.1975V71.1975Z" fill="#3A556A"/>
<path id="Vector_14" d="M93.3499 73.9701C92.7508 74.3509 92.5111 75.0794 92.8143 75.5982L93.3059 76.4394C93.6089 76.958 94.3404 77.0704 94.9397 76.6905C95.5389 76.3105 95.779 75.5821 95.476 75.0635L94.9844 74.2223C94.6821 73.7032 93.9508 73.59 93.3512 73.9693C93.3507 73.9696 93.3504 73.9698 93.3499 73.9701Z" fill="#3A556A"/>
<path id="Vector_15" d="M88.8856 76.7426C88.2865 77.1233 88.0467 77.8518 88.3499 78.3707L88.8415 79.2119C89.1446 79.7305 89.8761 79.8429 90.4753 79.463C91.0746 79.083 91.3147 78.3546 91.0116 77.836L90.52 76.9947C90.2177 76.4756 89.4865 76.3625 88.8868 76.7418C88.8863 76.7421 88.8858 76.7424 88.8856 76.7426Z" fill="#3A556A"/>
<path id="Vector_16" d="M84.421 79.5151C83.8218 79.8959 83.5821 80.6243 83.8853 81.1431L84.3769 81.9844C84.6807 82.5025 85.4126 82.6137 86.0112 82.2333C86.6088 81.8535 86.8484 81.1266 86.5467 80.6086L86.0551 79.7674C85.7522 79.2484 85.0207 79.1354 84.421 79.5151Z" fill="#3A556A"/>
<path id="Vector_17" d="M79.9564 82.2876C79.3572 82.6684 79.1175 83.3969 79.4207 83.9157L79.9123 84.757C80.2161 85.2751 80.948 85.3863 81.5466 85.0059C82.1442 84.6261 82.3838 83.8992 82.0821 83.3812L81.5905 82.5399C81.2876 82.0209 80.5561 81.9079 79.9564 82.2876Z" fill="#3A556A"/>
<path id="Vector_18" d="M75.492 85.06C74.8929 85.4408 74.6532 86.1693 74.9564 86.6881L75.448 87.5293C75.7518 88.0474 76.4836 88.1587 77.0822 87.7782C77.6798 87.3984 77.9194 86.6715 77.6178 86.1536L77.1261 85.3123C76.823 84.7935 76.0915 84.6805 75.492 85.06Z" fill="#3A556A"/>
<path id="Vector_19" d="M71.0262 87.8333C70.4269 88.2132 70.1868 88.9417 70.4899 89.4603L70.4905 89.4614L70.9821 90.3026C71.2859 90.8207 72.0178 90.932 72.6164 90.5515C73.214 90.1717 73.4536 89.4448 73.1519 88.9268L72.6603 88.0856C72.3574 87.5666 71.6259 87.4536 71.0262 87.8333Z" fill="#3A556A"/>
<path id="Vector_20" d="M66.5631 90.605C65.9638 90.9849 65.7237 91.7133 66.0268 92.2319L66.0274 92.233L66.519 93.0742C66.8228 93.5923 67.5547 93.7036 68.1533 93.3231C68.7509 92.9433 68.9905 92.2165 68.6888 91.6985L68.1972 90.8573C67.894 90.3384 67.1626 90.2255 66.5631 90.605Z" fill="#3A556A"/>
</g>
</g>
</g>
</g>
</svg>
